<?xml version="1.0" standalone="no"?>
<!DOCTYPE svg PUBLIC "-//W3C//DTD SVG 20010904//EN"
 "http://www.w3.org/TR/2001/REC-SVG-20010904/DTD/svg10.dtd">
<svg version="1.0" xmlns="http://www.w3.org/2000/svg"
 width="600.000000pt" height="600.000000pt" viewBox="0 0 600.000000 600.000000"
 preserveAspectRatio="xMidYMid meet">

<g transform="translate(0.000000,600.000000) scale(0.100000,-0.100000)"
fill="#000000" stroke="none">
<path d="M0 3000 l0 -3000 3000 0 3000 0 0 3000 0 3000 -3000 0 -3000 0 0
-3000z m3833 93 c-7 -2 -9 -11 -6 -19 3 -8 1 -14 -5 -14 -6 0 -12 5 -14 12 -3
8 -6 9 -11 1 -3 -5 5 -15 18 -21 19 -9 24 -9 22 1 -3 20 60 20 114 1 27 -10
49 -23 50 -28 0 -6 7 3 14 19 11 24 14 26 16 10 1 -11 1 -29 0 -40 -2 -17 0
-18 9 -5 9 12 10 12 6 -5 -3 -11 -17 -65 -31 -120 -15 -55 -33 -122 -41 -149
-27 -93 -47 -86 231 -86 135 0 245 -2 245 -5 0 -7 -81 -105 -564 -685 -457
-548 -496 -593 -496 -581 0 6 45 217 100 471 55 253 100 462 100 465 0 3 -97
5 -215 5 -118 0 -215 3 -215 8 0 10 118 444 122 447 4 4 216 132 346 209 61
37 117 64 122 61 6 -4 9 -2 8 4 -3 12 74 63 82 54 3 -3 0 -8 -7 -10z m174 -45
c-3 -8 -6 -5 -6 6 -1 11 2 17 5 13 3 -3 4 -12 1 -19z m53 7 c0 -8 -2 -15 -4
-15 -2 0 -6 7 -10 15 -3 8 -1 15 4 15 6 0 10 -7 10 -15z"/>
</g>
</svg>
